<svg xmlns="http://www.w3.org/2000/svg" width="760" height="670" style="background:#111"><style>
    .streak-box {
      animation: colorShift 6s linear infinite;
    }

    @keyframes colorShift {
      0%   { fill: #8b5cf6; }
      25%  { fill: #3b82f6; }
      50%  { fill: #06b6d4; }
      75%  { fill: #3b82f6; }
      100% { fill: #8b5cf6; }
    }
  </style><text x="42" y="33" fill="#4169E1" font-size="22px" font-family="Segoe UI, Roboto, sans-serif" font-weight="bold">JAN</text><rect x="100" y="40" width="16" height="16" rx="3" ry="3" fill="#2a2a2a"></rect><rect x="120" y="40" width="16" height="16" rx="3" ry="3" fill="#2a2a2a"></rect><rect x="140" y="40" width="16" height="16" rx="3" ry="3" fill="#2a2a2a"></rect><rect x="160" y="40" width="16" height="16" rx="3" ry="3" fill="#2a2a2a"></rect><rect x="40" y="60" width="16" height="16" rx="3" ry="3" fill="#2a2a2a"></rect><rect x="60" y="60" width="16" height="16" rx="3" ry="3" fill="#2a2a2a"></rect><rect x="80" y="60" width="16" height="16" rx="3" ry="3" fill="#2a2a2a"></rect><rect x="100" y="60" width="16" height="16" rx="3" ry="3" fill="#2a2a2a"></rect><rect x="120" y="60" width="16" height="16" rx="3" ry="3" fill="#2a2a2a"></rect><rect x="140" y="60" width="16" height="16" rx="3" ry="3" fill="#2a2a2a"></rect><rect x="160" y="60" width="16" height="16" rx="3" ry="3" fill="#2a2a2a"></rect><rect x="40" y="80" width="16" height="16" rx="3" ry="3" fill="#2a2a2a"></rect><rect x="60" y="80" width="16" height="16" rx="3" ry="3" fill="#2a2a2a"></rect><rect x="80" y="80" width="16" height="16" rx="3" ry="3" fill="#2a2a2a"></rect><rect x="100" y="80" width="16" height="16" rx="3" ry="3" fill="#2a2a2a"></rect><rect x="120" y="80" width="16" height="16" rx="3" ry="3" fill="#2a2a2a"></rect><rect x="140" y="80" width="16" height="16" rx="3" ry="3" fill="#2a2a2a"></rect><rect x="160" y="80" width="16" height="16" rx="3" ry="3" fill="#2a2a2a"></rect><rect x="40" y="100" width="16" height="16" rx="3" ry="3" fill="#2a2a2a"></rect><rect x="60" y="100" width="16" height="16" rx="3" ry="3" fill="#2a2a2a"></rect><rect x="80" y="100" width="16" height="16" rx="3" ry="3" fill="#2a2a2a"></rect><rect x="100" y="100" width="16" height="16" rx="3" ry="3" fill="#2a2a2a"></rect><rect x="120" y="100" width="16" height="16" rx="3" ry="3" fill="#2a2a2a"></rect><rect x="140" y="100" width="16" height="16" rx="3" ry="3" fill="#2a2a2a"></rect><rect x="160" y="100" width="16" height="16" rx="3" ry="3" fill="#2a2a2a"></rect><rect x="40" y="120" width="16" height="16" rx="3" ry="3" fill="#2a2a2a"></rect><rect x="60" y="120" width="16" height="16" rx="3" ry="3" fill="#2a2a2a"></rect><rect x="80" y="120" width="16" height="16" rx="3" ry="3" fill="#2a2a2a"></rect><rect x="100" y="120" width="16" height="16" rx="3" ry="3" fill="#2a2a2a"></rect><rect x="120" y="120" width="16" height="16" rx="3" ry="3" fill="#2a2a2a"></rect><rect x="140" y="120" width="16" height="16" rx="3" ry="3" fill="#2a2a2a"></rect><text x="212" y="33" fill="#4169E1" font-size="22px" font-family="Segoe UI, Roboto, sans-serif" font-weight="bold">FEB</text><rect x="330" y="40" width="16" height="16" rx="3" ry="3" fill="#2a2a2a"></rect><rect x="210" y="60" width="16" height="16" rx="3" ry="3" fill="#2a2a2a"></rect><rect x="230" y="60" width="16" height="16" rx="3" ry="3" fill="#2a2a2a"></rect><rect x="250" y="60" width="16" height="16" rx="3" ry="3" fill="#2a2a2a"></rect><rect x="270" y="60" width="16" height="16" rx="3" ry="3" fill="#2a2a2a"></rect><rect x="290" y="60" width="16" height="16" rx="3" ry="3" fill="#2a2a2a"></rect><rect x="310" y="60" width="16" height="16" rx="3" ry="3" fill="#2a2a2a"></rect><rect x="330" y="60" width="16" height="16" rx="3" ry="3" fill="#2a2a2a"></rect><rect x="210" y="80" width="16" height="16" rx="3" ry="3" fill="#2a2a2a"></rect><rect x="230" y="80" width="16" height="16" rx="3" ry="3" fill="#2a2a2a"></rect><rect x="250" y="80" width="16" height="16" rx="3" ry="3" fill="#2a2a2a"></rect><rect x="270" y="80" width="16" height="16" rx="3" ry="3" fill="#2a2a2a"></rect><rect x="290" y="80" width="16" height="16" rx="3" ry="3" fill="#2a2a2a"></rect><rect x="310" y="80" width="16" height="16" rx="3" ry="3" fill="#2a2a2a"></rect><rect x="330" y="80" width="16" height="16" rx="3" ry="3" fill="#2a2a2a"></rect><rect x="210" y="100" width="16" height="16" rx="3" ry="3" fill="#2a2a2a"></rect><rect x="230" y="100" width="16" height="16" rx="3" ry="3" fill="#2a2a2a"></rect><rect x="250" y="100" width="16" height="16" rx="3" ry="3" fill="#2a2a2a"></rect><rect x="270" y="100" width="16" height="16" rx="3" ry="3" fill="#2a2a2a"></rect><rect x="290" y="100" width="16" height="16" rx="3" ry="3" fill="#2a2a2a"></rect><rect x="310" y="100" width="16" height="16" rx="3" ry="3" fill="#2a2a2a"></rect><rect x="330" y="100" width="16" height="16" rx="3" ry="3" fill="#2a2a2a"></rect><rect x="210" y="120" width="16" height="16" rx="3" ry="3" fill="#2a2a2a"></rect><rect x="230" y="120" width="16" height="16" rx="3" ry="3" fill="#2a2a2a"></rect><rect x="250" y="120" width="16" height="16" rx="3" ry="3" fill="#2a2a2a"></rect><rect x="270" y="120" width="16" height="16" rx="3" ry="3" fill="#2a2a2a"></rect><rect x="290" y="120" width="16" height="16" rx="3" ry="3" fill="#2a2a2a"></rect><rect x="310" y="120" width="16" height="16" rx="3" ry="3" fill="#2a2a2a"></rect><text x="382" y="33" fill="#4169E1" font-size="22px" font-family="Segoe UI, Roboto, sans-serif" font-weight="bold">MAR</text><rect x="500" y="40" width="16" height="16" rx="3" ry="3" fill="#2a2a2a"></rect><rect x="380" y="60" width="16" height="16" rx="3" ry="3" fill="#2a2a2a"></rect><rect x="400" y="60" width="16" height="16" rx="3" ry="3" fill="#2a2a2a"></rect><rect x="420" y="60" width="16" height="16" rx="3" ry="3" fill="#2a2a2a"></rect><rect x="440" y="60" width="16" height="16" rx="3" ry="3" fill="#2a2a2a"></rect><rect x="460" y="60" width="16" height="16" rx="3" ry="3" fill="#2a2a2a"></rect><rect x="480" y="60" width="16" height="16" rx="3" ry="3" fill="#2a2a2a"></rect><rect x="500" y="60" width="16" height="16" rx="3" ry="3" fill="#2a2a2a"></rect><rect x="380" y="80" width="16" height="16" rx="3" ry="3" fill="#2a2a2a"></rect><rect x="400" y="80" width="16" height="16" rx="3" ry="3" fill="#2a2a2a"></rect><rect x="420" y="80" width="16" height="16" rx="3" ry="3" fill="#2a2a2a"></rect><rect x="440" y="80" width="16" height="16" rx="3" ry="3" fill="#2a2a2a"></rect><rect x="460" y="80" width="16" height="16" rx="3" ry="3" fill="#2a2a2a"></rect><rect x="480" y="80" width="16" height="16" rx="3" ry="3" fill="#2a2a2a"></rect><rect x="500" y="80" width="16" height="16" rx="3" ry="3" fill="#2a2a2a"></rect><rect x="380" y="100" width="16" height="16" rx="3" ry="3" fill="#2a2a2a"></rect><rect x="400" y="100" width="16" height="16" rx="3" ry="3" fill="#2a2a2a"></rect><rect x="420" y="100" width="16" height="16" rx="3" ry="3" fill="#2a2a2a"></rect><rect x="440" y="100" width="16" height="16" rx="3" ry="3" fill="#2a2a2a"></rect><rect x="460" y="100" width="16" height="16" rx="3" ry="3" fill="#2a2a2a"></rect><rect x="480" y="100" width="16" height="16" rx="3" ry="3" fill="#2a2a2a"></rect><rect x="500" y="100" width="16" height="16" rx="3" ry="3" fill="#2a2a2a"></rect><rect x="380" y="120" width="16" height="16" rx="3" ry="3" fill="#2a2a2a"></rect><rect x="400" y="120" width="16" height="16" rx="3" ry="3" fill="#2a2a2a"></rect><rect x="420" y="120" width="16" height="16" rx="3" ry="3" fill="#2a2a2a"></rect><rect x="440" y="120" width="16" height="16" rx="3" ry="3" fill="#2a2a2a"></rect><rect x="460" y="120" width="16" height="16" rx="3" ry="3" fill="#2a2a2a"></rect><rect x="480" y="120" width="16" height="16" rx="3" ry="3" fill="#2a2a2a"></rect><rect x="500" y="120" width="16" height="16" rx="3" ry="3" fill="#2a2a2a"></rect><rect x="380" y="140" width="16" height="16" rx="3" ry="3" fill="#2a2a2a"></rect><rect x="400" y="140" width="16" height="16" rx="3" ry="3" fill="#2a2a2a"></rect><text x="552" y="33" fill="#4169E1" font-size="22px" font-family="Segoe UI, Roboto, sans-serif" font-weight="bold">APR</text><rect x="590" y="40" width="16" height="16" rx="3" ry="3" fill="#2a2a2a"></rect><rect x="610" y="40" width="16" height="16" rx="3" ry="3" fill="#2a2a2a"></rect><rect x="630" y="40" width="16" height="16" rx="3" ry="3" fill="#2a2a2a"></rect><rect x="650" y="40" width="16" height="16" rx="3" ry="3" fill="#2a2a2a"></rect><rect x="670" y="40" width="16" height="16" rx="3" ry="3" fill="#2a2a2a"></rect><rect x="550" y="60" width="16" height="16" rx="3" ry="3" fill="#2a2a2a"></rect><rect x="570" y="60" width="16" height="16" rx="3" ry="3" fill="#2a2a2a"></rect><rect x="590" y="60" width="16" height="16" rx="3" ry="3" fill="#2a2a2a"></rect><rect x="610" y="60" width="16" height="16" rx="3" ry="3" fill="#2a2a2a"></rect><rect x="630" y="60" width="16" height="16" rx="3" ry="3" fill="#2a2a2a"></rect><rect x="650" y="60" width="16" height="16" rx="3" ry="3" fill="#2a2a2a"></rect><rect x="670" y="60" width="16" height="16" rx="3" ry="3" fill="#2a2a2a"></rect><rect x="550" y="80" width="16" height="16" rx="3" ry="3" fill="#2a2a2a"></rect><rect x="570" y="80" width="16" height="16" rx="3" ry="3" fill="#2a2a2a"></rect><rect x="590" y="80" width="16" height="16" rx="3" ry="3" fill="#2a2a2a"></rect><rect x="610" y="80" width="16" height="16" rx="3" ry="3" fill="#2a2a2a"></rect><rect x="630" y="80" width="16" height="16" rx="3" ry="3" fill="#2a2a2a"></rect><rect x="650" y="80" width="16" height="16" rx="3" ry="3" fill="#2a2a2a"></rect><rect x="670" y="80" width="16" height="16" rx="3" ry="3" fill="#2a2a2a"></rect><rect x="550" y="100" width="16" height="16" rx="3" ry="3" fill="#2a2a2a"></rect><rect x="570" y="100" width="16" height="16" rx="3" ry="3" fill="#2a2a2a"></rect><rect x="590" y="100" width="16" height="16" rx="3" ry="3" fill="#2a2a2a"></rect><rect x="610" y="100" width="16" height="16" rx="3" ry="3" fill="#2a2a2a"></rect><rect x="630" y="100" width="16" height="16" rx="3" ry="3" fill="#2a2a2a"></rect><rect x="650" y="100" width="16" height="16" rx="3" ry="3" fill="#2a2a2a"></rect><rect x="670" y="100" width="16" height="16" rx="3" ry="3" fill="#2a2a2a"></rect><rect x="550" y="120" width="16" height="16" rx="3" ry="3" fill="#2a2a2a"></rect><rect x="570" y="120" width="16" height="16" rx="3" ry="3" fill="#2a2a2a"></rect><rect x="590" y="120" width="16" height="16" rx="3" ry="3" fill="#2a2a2a"></rect><rect class="streak-box" x="590" y="120" width="16" height="16" rx="3" ry="3" opacity="0"><animate attributeName="opacity" from="0" to="1" begin="0.0s" dur="0.3s" fill="freeze"></animate></rect><rect x="610" y="120" width="16" height="16" rx="3" ry="3" fill="#2a2a2a"></rect><rect class="streak-box" x="610" y="120" width="16" height="16" rx="3" ry="3" opacity="0"><animate attributeName="opacity" from="0" to="1" begin="0.1s" dur="0.3s" fill="freeze"></animate></rect><text x="42" y="203" fill="#4169E1" font-size="22px" font-family="Segoe UI, Roboto, sans-serif" font-weight="bold">MAY</text><rect x="120" y="210" width="16" height="16" rx="3" ry="3" fill="#2a2a2a"></rect><rect class="streak-box" x="120" y="210" width="16" height="16" rx="3" ry="3" opacity="0"><animate attributeName="opacity" from="0" to="1" begin="0.2s" dur="0.3s" fill="freeze"></animate></rect><rect x="140" y="210" width="16" height="16" rx="3" ry="3" fill="#2a2a2a"></rect><rect class="streak-box" x="140" y="210" width="16" height="16" rx="3" ry="3" opacity="0"><animate attributeName="opacity" from="0" to="1" begin="0.3s" dur="0.3s" fill="freeze"></animate></rect><rect x="160" y="210" width="16" height="16" rx="3" ry="3" fill="#2a2a2a"></rect><rect class="streak-box" x="160" y="210" width="16" height="16" rx="3" ry="3" opacity="0"><animate attributeName="opacity" from="0" to="1" begin="0.3s" dur="0.3s" fill="freeze"></animate></rect><rect x="40" y="230" width="16" height="16" rx="3" ry="3" fill="#2a2a2a"></rect><rect class="streak-box" x="40" y="230" width="16" height="16" rx="3" ry="3" opacity="0"><animate attributeName="opacity" from="0" to="1" begin="0.4s" dur="0.3s" fill="freeze"></animate></rect><rect x="60" y="230" width="16" height="16" rx="3" ry="3" fill="#2a2a2a"></rect><rect class="streak-box" x="60" y="230" width="16" height="16" rx="3" ry="3" opacity="0"><animate attributeName="opacity" from="0" to="1" begin="0.5s" dur="0.3s" fill="freeze"></animate></rect><rect x="80" y="230" width="16" height="16" rx="3" ry="3" fill="#2a2a2a"></rect><rect class="streak-box" x="80" y="230" width="16" height="16" rx="3" ry="3" opacity="0"><animate attributeName="opacity" from="0" to="1" begin="0.7s" dur="0.3s" fill="freeze"></animate></rect><rect x="100" y="230" width="16" height="16" rx="3" ry="3" fill="#2a2a2a"></rect><rect class="streak-box" x="100" y="230" width="16" height="16" rx="3" ry="3" opacity="0"><animate attributeName="opacity" from="0" to="1" begin="0.8s" dur="0.3s" fill="freeze"></animate></rect><rect x="120" y="230" width="16" height="16" rx="3" ry="3" fill="#2a2a2a"></rect><rect class="streak-box" x="120" y="230" width="16" height="16" rx="3" ry="3" opacity="0"><animate attributeName="opacity" from="0" to="1" begin="0.9s" dur="0.3s" fill="freeze"></animate></rect><rect x="140" y="230" width="16" height="16" rx="3" ry="3" fill="#2a2a2a"></rect><rect class="streak-box" x="140" y="230" width="16" height="16" rx="3" ry="3" opacity="0"><animate attributeName="opacity" from="0" to="1" begin="1.1s" dur="0.3s" fill="freeze"></animate></rect><rect x="160" y="230" width="16" height="16" rx="3" ry="3" fill="#2a2a2a"></rect><rect class="streak-box" x="160" y="230" width="16" height="16" rx="3" ry="3" opacity="0"><animate attributeName="opacity" from="0" to="1" begin="1.2s" dur="0.3s" fill="freeze"></animate></rect><rect x="40" y="250" width="16" height="16" rx="3" ry="3" fill="#2a2a2a"></rect><rect class="streak-box" x="40" y="250" width="16" height="16" rx="3" ry="3" opacity="0"><animate attributeName="opacity" from="0" to="1" begin="1.4s" dur="0.3s" fill="freeze"></animate></rect><rect x="60" y="250" width="16" height="16" rx="3" ry="3" fill="#2a2a2a"></rect><rect class="streak-box" x="60" y="250" width="16" height="16" rx="3" ry="3" opacity="0"><animate attributeName="opacity" from="0" to="1" begin="1.6s" dur="0.3s" fill="freeze"></animate></rect><rect x="80" y="250" width="16" height="16" rx="3" ry="3" fill="#2a2a2a"></rect><rect class="streak-box" x="80" y="250" width="16" height="16" rx="3" ry="3" opacity="0"><animate attributeName="opacity" from="0" to="1" begin="1.7s" dur="0.3s" fill="freeze"></animate></rect><rect x="100" y="250" width="16" height="16" rx="3" ry="3" fill="#2a2a2a"></rect><rect class="streak-box" x="100" y="250" width="16" height="16" rx="3" ry="3" opacity="0"><animate attributeName="opacity" from="0" to="1" begin="1.9s" dur="0.3s" fill="freeze"></animate></rect><rect x="120" y="250" width="16" height="16" rx="3" ry="3" fill="#2a2a2a"></rect><rect class="streak-box" x="120" y="250" width="16" height="16" rx="3" ry="3" opacity="0"><animate attributeName="opacity" from="0" to="1" begin="2.1s" dur="0.3s" fill="freeze"></animate></rect><rect x="140" y="250" width="16" height="16" rx="3" ry="3" fill="#2a2a2a"></rect><rect class="streak-box" x="140" y="250" width="16" height="16" rx="3" ry="3" opacity="0"><animate attributeName="opacity" from="0" to="1" begin="2.3s" dur="0.3s" fill="freeze"></animate></rect><rect x="160" y="250" width="16" height="16" rx="3" ry="3" fill="#2a2a2a"></rect><rect class="streak-box" x="160" y="250" width="16" height="16" rx="3" ry="3" opacity="0"><animate attributeName="opacity" from="0" to="1" begin="2.5s" dur="0.3s" fill="freeze"></animate></rect><rect x="40" y="270" width="16" height="16" rx="3" ry="3" fill="#2a2a2a"></rect><rect class="streak-box" x="40" y="270" width="16" height="16" rx="3" ry="3" opacity="0"><animate attributeName="opacity" from="0" to="1" begin="2.7s" dur="0.3s" fill="freeze"></animate></rect><rect x="60" y="270" width="16" height="16" rx="3" ry="3" fill="#2a2a2a"></rect><rect class="streak-box" x="60" y="270" width="16" height="16" rx="3" ry="3" opacity="0"><animate attributeName="opacity" from="0" to="1" begin="2.8s" dur="0.3s" fill="freeze"></animate></rect><rect x="80" y="270" width="16" height="16" rx="3" ry="3" fill="#2a2a2a"></rect><rect class="streak-box" x="80" y="270" width="16" height="16" rx="3" ry="3" opacity="0"><animate attributeName="opacity" from="0" to="1" begin="3.0s" dur="0.3s" fill="freeze"></animate></rect><rect x="100" y="270" width="16" height="16" rx="3" ry="3" fill="#2a2a2a"></rect><rect class="streak-box" x="100" y="270" width="16" height="16" rx="3" ry="3" opacity="0"><animate attributeName="opacity" from="0" to="1" begin="3.1s" dur="0.3s" fill="freeze"></animate></rect><rect x="120" y="270" width="16" height="16" rx="3" ry="3" fill="#2a2a2a"></rect><rect class="streak-box" x="120" y="270" width="16" height="16" rx="3" ry="3" opacity="0"><animate attributeName="opacity" from="0" to="1" begin="3.3s" dur="0.3s" fill="freeze"></animate></rect><rect x="140" y="270" width="16" height="16" rx="3" ry="3" fill="#2a2a2a"></rect><rect class="streak-box" x="140" y="270" width="16" height="16" rx="3" ry="3" opacity="0"><animate attributeName="opacity" from="0" to="1" begin="3.4s" dur="0.3s" fill="freeze"></animate></rect><rect x="160" y="270" width="16" height="16" rx="3" ry="3" fill="#2a2a2a"></rect><rect class="streak-box" x="160" y="270" width="16" height="16" rx="3" ry="3" opacity="0"><animate attributeName="opacity" from="0" to="1" begin="3.5s" dur="0.3s" fill="freeze"></animate></rect><rect x="40" y="290" width="16" height="16" rx="3" ry="3" fill="#2a2a2a"></rect><rect class="streak-box" x="40" y="290" width="16" height="16" rx="3" ry="3" opacity="0"><animate attributeName="opacity" from="0" to="1" begin="3.6s" dur="0.3s" fill="freeze"></animate></rect><rect x="60" y="290" width="16" height="16" rx="3" ry="3" fill="#2a2a2a"></rect><rect class="streak-box" x="60" y="290" width="16" height="16" rx="3" ry="3" opacity="0"><animate attributeName="opacity" from="0" to="1" begin="3.7s" dur="0.3s" fill="freeze"></animate></rect><rect x="80" y="290" width="16" height="16" rx="3" ry="3" fill="#2a2a2a"></rect><rect class="streak-box" x="80" y="290" width="16" height="16" rx="3" ry="3" opacity="0"><animate attributeName="opacity" from="0" to="1" begin="3.8s" dur="0.3s" fill="freeze"></animate></rect><rect x="100" y="290" width="16" height="16" rx="3" ry="3" fill="#2a2a2a"></rect><rect class="streak-box" x="100" y="290" width="16" height="16" rx="3" ry="3" opacity="0"><animate attributeName="opacity" from="0" to="1" begin="3.9s" dur="0.3s" fill="freeze"></animate></rect><rect x="120" y="290" width="16" height="16" rx="3" ry="3" fill="#2a2a2a"></rect><rect class="streak-box" x="120" y="290" width="16" height="16" rx="3" ry="3" opacity="0"><animate attributeName="opacity" from="0" to="1" begin="3.9s" dur="0.3s" fill="freeze"></animate></rect><rect x="140" y="290" width="16" height="16" rx="3" ry="3" fill="#2a2a2a"></rect><rect class="streak-box" x="140" y="290" width="16" height="16" rx="3" ry="3" opacity="0"><animate attributeName="opacity" from="0" to="1" begin="4.0s" dur="0.3s" fill="freeze"></animate></rect><rect x="160" y="290" width="16" height="16" rx="3" ry="3" fill="#2a2a2a"></rect><text x="212" y="203" fill="#4169E1" font-size="22px" font-family="Segoe UI, Roboto, sans-serif" font-weight="bold">JUN</text><rect x="210" y="210" width="16" height="16" rx="3" ry="3" fill="#2a2a2a"></rect><rect x="230" y="210" width="16" height="16" rx="3" ry="3" fill="#2a2a2a"></rect><rect x="250" y="210" width="16" height="16" rx="3" ry="3" fill="#2a2a2a"></rect><rect x="270" y="210" width="16" height="16" rx="3" ry="3" fill="#2a2a2a"></rect><rect x="290" y="210" width="16" height="16" rx="3" ry="3" fill="#2a2a2a"></rect><rect x="310" y="210" width="16" height="16" rx="3" ry="3" fill="#2a2a2a"></rect><rect x="330" y="210" width="16" height="16" rx="3" ry="3" fill="#2a2a2a"></rect><rect x="210" y="230" width="16" height="16" rx="3" ry="3" fill="#2a2a2a"></rect><rect x="230" y="230" width="16" height="16" rx="3" ry="3" fill="#2a2a2a"></rect><rect x="250" y="230" width="16" height="16" rx="3" ry="3" fill="#2a2a2a"></rect><rect x="270" y="230" width="16" height="16" rx="3" ry="3" fill="#2a2a2a"></rect><rect x="290" y="230" width="16" height="16" rx="3" ry="3" fill="#2a2a2a"></rect><rect x="310" y="230" width="16" height="16" rx="3" ry="3" fill="#2a2a2a"></rect><rect x="330" y="230" width="16" height="16" rx="3" ry="3" fill="#2a2a2a"></rect><rect x="210" y="250" width="16" height="16" rx="3" ry="3" fill="#2a2a2a"></rect><rect x="230" y="250" width="16" height="16" rx="3" ry="3" fill="#2a2a2a"></rect><rect x="250" y="250" width="16" height="16" rx="3" ry="3" fill="#2a2a2a"></rect><rect x="270" y="250" width="16" height="16" rx="3" ry="3" fill="#2a2a2a"></rect><rect x="290" y="250" width="16" height="16" rx="3" ry="3" fill="#2a2a2a"></rect><rect x="310" y="250" width="16" height="16" rx="3" ry="3" fill="#2a2a2a"></rect><rect x="330" y="250" width="16" height="16" rx="3" ry="3" fill="#2a2a2a"></rect><rect x="210" y="270" width="16" height="16" rx="3" ry="3" fill="#2a2a2a"></rect><rect x="230" y="270" width="16" height="16" rx="3" ry="3" fill="#2a2a2a"></rect><rect x="250" y="270" width="16" height="16" rx="3" ry="3" fill="#2a2a2a"></rect><rect x="270" y="270" width="16" height="16" rx="3" ry="3" fill="#2a2a2a"></rect><rect x="290" y="270" width="16" height="16" rx="3" ry="3" fill="#2a2a2a"></rect><rect x="310" y="270" width="16" height="16" rx="3" ry="3" fill="#2a2a2a"></rect><rect x="330" y="270" width="16" height="16" rx="3" ry="3" fill="#2a2a2a"></rect><rect x="210" y="290" width="16" height="16" rx="3" ry="3" fill="#2a2a2a"></rect><rect x="230" y="290" width="16" height="16" rx="3" ry="3" fill="#2a2a2a"></rect><text x="382" y="203" fill="#4169E1" font-size="22px" font-family="Segoe UI, Roboto, sans-serif" font-weight="bold">JUL</text><rect x="420" y="210" width="16" height="16" rx="3" ry="3" fill="#2a2a2a"></rect><rect x="440" y="210" width="16" height="16" rx="3" ry="3" fill="#2a2a2a"></rect><rect x="460" y="210" width="16" height="16" rx="3" ry="3" fill="#2a2a2a"></rect><rect x="480" y="210" width="16" height="16" rx="3" ry="3" fill="#2a2a2a"></rect><rect x="500" y="210" width="16" height="16" rx="3" ry="3" fill="#2a2a2a"></rect><rect x="380" y="230" width="16" height="16" rx="3" ry="3" fill="#2a2a2a"></rect><rect x="400" y="230" width="16" height="16" rx="3" ry="3" fill="#2a2a2a"></rect><rect x="420" y="230" width="16" height="16" rx="3" ry="3" fill="#2a2a2a"></rect><rect x="440" y="230" width="16" height="16" rx="3" ry="3" fill="#2a2a2a"></rect><rect x="460" y="230" width="16" height="16" rx="3" ry="3" fill="#2a2a2a"></rect><rect x="480" y="230" width="16" height="16" rx="3" ry="3" fill="#2a2a2a"></rect><rect x="500" y="230" width="16" height="16" rx="3" ry="3" fill="#2a2a2a"></rect><rect x="380" y="250" width="16" height="16" rx="3" ry="3" fill="#2a2a2a"></rect><rect x="400" y="250" width="16" height="16" rx="3" ry="3" fill="#2a2a2a"></rect><rect x="420" y="250" width="16" height="16" rx="3" ry="3" fill="#2a2a2a"></rect><rect x="440" y="250" width="16" height="16" rx="3" ry="3" fill="#2a2a2a"></rect><rect x="460" y="250" width="16" height="16" rx="3" ry="3" fill="#2a2a2a"></rect><rect x="480" y="250" width="16" height="16" rx="3" ry="3" fill="#2a2a2a"></rect><rect x="500" y="250" width="16" height="16" rx="3" ry="3" fill="#2a2a2a"></rect><rect x="380" y="270" width="16" height="16" rx="3" ry="3" fill="#2a2a2a"></rect><rect x="400" y="270" width="16" height="16" rx="3" ry="3" fill="#2a2a2a"></rect><rect x="420" y="270" width="16" height="16" rx="3" ry="3" fill="#2a2a2a"></rect><rect x="440" y="270" width="16" height="16" rx="3" ry="3" fill="#2a2a2a"></rect><rect x="460" y="270" width="16" height="16" rx="3" ry="3" fill="#2a2a2a"></rect><rect x="480" y="270" width="16" height="16" rx="3" ry="3" fill="#2a2a2a"></rect><rect x="500" y="270" width="16" height="16" rx="3" ry="3" fill="#2a2a2a"></rect><rect x="380" y="290" width="16" height="16" rx="3" ry="3" fill="#2a2a2a"></rect><rect x="400" y="290" width="16" height="16" rx="3" ry="3" fill="#2a2a2a"></rect><rect x="420" y="290" width="16" height="16" rx="3" ry="3" fill="#2a2a2a"></rect><rect x="440" y="290" width="16" height="16" rx="3" ry="3" fill="#2a2a2a"></rect><rect x="460" y="290" width="16" height="16" rx="3" ry="3" fill="#2a2a2a"></rect><text x="552" y="203" fill="#4169E1" font-size="22px" font-family="Segoe UI, Roboto, sans-serif" font-weight="bold">AUG</text><rect x="650" y="210" width="16" height="16" rx="3" ry="3" fill="#2a2a2a"></rect><rect x="670" y="210" width="16" height="16" rx="3" ry="3" fill="#2a2a2a"></rect><rect x="550" y="230" width="16" height="16" rx="3" ry="3" fill="#2a2a2a"></rect><rect x="570" y="230" width="16" height="16" rx="3" ry="3" fill="#2a2a2a"></rect><rect x="590" y="230" width="16" height="16" rx="3" ry="3" fill="#2a2a2a"></rect><rect x="610" y="230" width="16" height="16" rx="3" ry="3" fill="#2a2a2a"></rect><rect x="630" y="230" width="16" height="16" rx="3" ry="3" fill="#2a2a2a"></rect><rect x="650" y="230" width="16" height="16" rx="3" ry="3" fill="#2a2a2a"></rect><rect x="670" y="230" width="16" height="16" rx="3" ry="3" fill="#2a2a2a"></rect><rect x="550" y="250" width="16" height="16" rx="3" ry="3" fill="#2a2a2a"></rect><rect x="570" y="250" width="16" height="16" rx="3" ry="3" fill="#2a2a2a"></rect><rect x="590" y="250" width="16" height="16" rx="3" ry="3" fill="#2a2a2a"></rect><rect x="610" y="250" width="16" height="16" rx="3" ry="3" fill="#2a2a2a"></rect><rect x="630" y="250" width="16" height="16" rx="3" ry="3" fill="#2a2a2a"></rect><rect x="650" y="250" width="16" height="16" rx="3" ry="3" fill="#2a2a2a"></rect><rect x="670" y="250" width="16" height="16" rx="3" ry="3" fill="#2a2a2a"></rect><rect x="550" y="270" width="16" height="16" rx="3" ry="3" fill="#2a2a2a"></rect><rect x="570" y="270" width="16" height="16" rx="3" ry="3" fill="#2a2a2a"></rect><rect x="590" y="270" width="16" height="16" rx="3" ry="3" fill="#2a2a2a"></rect><rect x="610" y="270" width="16" height="16" rx="3" ry="3" fill="#2a2a2a"></rect><rect x="630" y="270" width="16" height="16" rx="3" ry="3" fill="#2a2a2a"></rect><rect x="650" y="270" width="16" height="16" rx="3" ry="3" fill="#2a2a2a"></rect><rect x="670" y="270" width="16" height="16" rx="3" ry="3" fill="#2a2a2a"></rect><rect x="550" y="290" width="16" height="16" rx="3" ry="3" fill="#2a2a2a"></rect><rect x="570" y="290" width="16" height="16" rx="3" ry="3" fill="#2a2a2a"></rect><rect x="590" y="290" width="16" height="16" rx="3" ry="3" fill="#2a2a2a"></rect><rect x="610" y="290" width="16" height="16" rx="3" ry="3" fill="#2a2a2a"></rect><rect x="630" y="290" width="16" height="16" rx="3" ry="3" fill="#2a2a2a"></rect><rect x="650" y="290" width="16" height="16" rx="3" ry="3" fill="#2a2a2a"></rect><rect x="670" y="290" width="16" height="16" rx="3" ry="3" fill="#2a2a2a"></rect><rect x="550" y="310" width="16" height="16" rx="3" ry="3" fill="#2a2a2a"></rect><text x="42" y="373" fill="#4169E1" font-size="22px" font-family="Segoe UI, Roboto, sans-serif" font-weight="bold">SEP</text><rect x="60" y="380" width="16" height="16" rx="3" ry="3" fill="#2a2a2a"></rect><rect x="80" y="380" width="16" height="16" rx="3" ry="3" fill="#2a2a2a"></rect><rect x="100" y="380" width="16" height="16" rx="3" ry="3" fill="#2a2a2a"></rect><rect x="120" y="380" width="16" height="16" rx="3" ry="3" fill="#2a2a2a"></rect><rect x="140" y="380" width="16" height="16" rx="3" ry="3" fill="#2a2a2a"></rect><rect x="160" y="380" width="16" height="16" rx="3" ry="3" fill="#2a2a2a"></rect><rect x="40" y="400" width="16" height="16" rx="3" ry="3" fill="#2a2a2a"></rect><rect x="60" y="400" width="16" height="16" rx="3" ry="3" fill="#2a2a2a"></rect><rect x="80" y="400" width="16" height="16" rx="3" ry="3" fill="#2a2a2a"></rect><rect x="100" y="400" width="16" height="16" rx="3" ry="3" fill="#2a2a2a"></rect><rect x="120" y="400" width="16" height="16" rx="3" ry="3" fill="#2a2a2a"></rect><rect x="140" y="400" width="16" height="16" rx="3" ry="3" fill="#2a2a2a"></rect><rect x="160" y="400" width="16" height="16" rx="3" ry="3" fill="#2a2a2a"></rect><rect x="40" y="420" width="16" height="16" rx="3" ry="3" fill="#2a2a2a"></rect><rect x="60" y="420" width="16" height="16" rx="3" ry="3" fill="#2a2a2a"></rect><rect x="80" y="420" width="16" height="16" rx="3" ry="3" fill="#2a2a2a"></rect><rect x="100" y="420" width="16" height="16" rx="3" ry="3" fill="#2a2a2a"></rect><rect x="120" y="420" width="16" height="16" rx="3" ry="3" fill="#2a2a2a"></rect><rect x="140" y="420" width="16" height="16" rx="3" ry="3" fill="#2a2a2a"></rect><rect x="160" y="420" width="16" height="16" rx="3" ry="3" fill="#2a2a2a"></rect><rect x="40" y="440" width="16" height="16" rx="3" ry="3" fill="#2a2a2a"></rect><rect x="60" y="440" width="16" height="16" rx="3" ry="3" fill="#2a2a2a"></rect><rect x="80" y="440" width="16" height="16" rx="3" ry="3" fill="#2a2a2a"></rect><rect x="100" y="440" width="16" height="16" rx="3" ry="3" fill="#2a2a2a"></rect><rect x="120" y="440" width="16" height="16" rx="3" ry="3" fill="#2a2a2a"></rect><rect x="140" y="440" width="16" height="16" rx="3" ry="3" fill="#2a2a2a"></rect><rect x="160" y="440" width="16" height="16" rx="3" ry="3" fill="#2a2a2a"></rect><rect x="40" y="460" width="16" height="16" rx="3" ry="3" fill="#2a2a2a"></rect><rect x="60" y="460" width="16" height="16" rx="3" ry="3" fill="#2a2a2a"></rect><rect x="80" y="460" width="16" height="16" rx="3" ry="3" fill="#2a2a2a"></rect><text x="212" y="373" fill="#4169E1" font-size="22px" font-family="Segoe UI, Roboto, sans-serif" font-weight="bold">OCT</text><rect x="270" y="380" width="16" height="16" rx="3" ry="3" fill="#2a2a2a"></rect><rect x="290" y="380" width="16" height="16" rx="3" ry="3" fill="#2a2a2a"></rect><rect x="310" y="380" width="16" height="16" rx="3" ry="3" fill="#2a2a2a"></rect><rect x="330" y="380" width="16" height="16" rx="3" ry="3" fill="#2a2a2a"></rect><rect x="210" y="400" width="16" height="16" rx="3" ry="3" fill="#2a2a2a"></rect><rect x="230" y="400" width="16" height="16" rx="3" ry="3" fill="#2a2a2a"></rect><rect x="250" y="400" width="16" height="16" rx="3" ry="3" fill="#2a2a2a"></rect><rect x="270" y="400" width="16" height="16" rx="3" ry="3" fill="#2a2a2a"></rect><rect x="290" y="400" width="16" height="16" rx="3" ry="3" fill="#2a2a2a"></rect><rect x="310" y="400" width="16" height="16" rx="3" ry="3" fill="#2a2a2a"></rect><rect x="330" y="400" width="16" height="16" rx="3" ry="3" fill="#2a2a2a"></rect><rect x="210" y="420" width="16" height="16" rx="3" ry="3" fill="#2a2a2a"></rect><rect x="230" y="420" width="16" height="16" rx="3" ry="3" fill="#2a2a2a"></rect><rect x="250" y="420" width="16" height="16" rx="3" ry="3" fill="#2a2a2a"></rect><rect x="270" y="420" width="16" height="16" rx="3" ry="3" fill="#2a2a2a"></rect><rect x="290" y="420" width="16" height="16" rx="3" ry="3" fill="#2a2a2a"></rect><rect x="310" y="420" width="16" height="16" rx="3" ry="3" fill="#2a2a2a"></rect><rect x="330" y="420" width="16" height="16" rx="3" ry="3" fill="#2a2a2a"></rect><rect x="210" y="440" width="16" height="16" rx="3" ry="3" fill="#2a2a2a"></rect><rect x="230" y="440" width="16" height="16" rx="3" ry="3" fill="#2a2a2a"></rect><rect x="250" y="440" width="16" height="16" rx="3" ry="3" fill="#2a2a2a"></rect><rect x="270" y="440" width="16" height="16" rx="3" ry="3" fill="#2a2a2a"></rect><rect x="290" y="440" width="16" height="16" rx="3" ry="3" fill="#2a2a2a"></rect><rect x="310" y="440" width="16" height="16" rx="3" ry="3" fill="#2a2a2a"></rect><rect x="330" y="440" width="16" height="16" rx="3" ry="3" fill="#2a2a2a"></rect><rect x="210" y="460" width="16" height="16" rx="3" ry="3" fill="#2a2a2a"></rect><rect x="230" y="460" width="16" height="16" rx="3" ry="3" fill="#2a2a2a"></rect><rect x="250" y="460" width="16" height="16" rx="3" ry="3" fill="#2a2a2a"></rect><rect x="270" y="460" width="16" height="16" rx="3" ry="3" fill="#2a2a2a"></rect><rect x="290" y="460" width="16" height="16" rx="3" ry="3" fill="#2a2a2a"></rect><rect x="310" y="460" width="16" height="16" rx="3" ry="3" fill="#2a2a2a"></rect><text x="382" y="373" fill="#4169E1" font-size="22px" font-family="Segoe UI, Roboto, sans-serif" font-weight="bold">NOV</text><rect x="500" y="380" width="16" height="16" rx="3" ry="3" fill="#2a2a2a"></rect><rect x="380" y="400" width="16" height="16" rx="3" ry="3" fill="#2a2a2a"></rect><rect x="400" y="400" width="16" height="16" rx="3" ry="3" fill="#2a2a2a"></rect><rect x="420" y="400" width="16" height="16" rx="3" ry="3" fill="#2a2a2a"></rect><rect x="440" y="400" width="16" height="16" rx="3" ry="3" fill="#2a2a2a"></rect><rect x="460" y="400" width="16" height="16" rx="3" ry="3" fill="#2a2a2a"></rect><rect x="480" y="400" width="16" height="16" rx="3" ry="3" fill="#2a2a2a"></rect><rect x="500" y="400" width="16" height="16" rx="3" ry="3" fill="#2a2a2a"></rect><rect x="380" y="420" width="16" height="16" rx="3" ry="3" fill="#2a2a2a"></rect><rect x="400" y="420" width="16" height="16" rx="3" ry="3" fill="#2a2a2a"></rect><rect x="420" y="420" width="16" height="16" rx="3" ry="3" fill="#2a2a2a"></rect><rect x="440" y="420" width="16" height="16" rx="3" ry="3" fill="#2a2a2a"></rect><rect x="460" y="420" width="16" height="16" rx="3" ry="3" fill="#2a2a2a"></rect><rect x="480" y="420" width="16" height="16" rx="3" ry="3" fill="#2a2a2a"></rect><rect x="500" y="420" width="16" height="16" rx="3" ry="3" fill="#2a2a2a"></rect><rect x="380" y="440" width="16" height="16" rx="3" ry="3" fill="#2a2a2a"></rect><rect x="400" y="440" width="16" height="16" rx="3" ry="3" fill="#2a2a2a"></rect><rect x="420" y="440" width="16" height="16" rx="3" ry="3" fill="#2a2a2a"></rect><rect x="440" y="440" width="16" height="16" rx="3" ry="3" fill="#2a2a2a"></rect><rect x="460" y="440" width="16" height="16" rx="3" ry="3" fill="#2a2a2a"></rect><rect x="480" y="440" width="16" height="16" rx="3" ry="3" fill="#2a2a2a"></rect><rect x="500" y="440" width="16" height="16" rx="3" ry="3" fill="#2a2a2a"></rect><rect x="380" y="460" width="16" height="16" rx="3" ry="3" fill="#2a2a2a"></rect><rect x="400" y="460" width="16" height="16" rx="3" ry="3" fill="#2a2a2a"></rect><rect x="420" y="460" width="16" height="16" rx="3" ry="3" fill="#2a2a2a"></rect><rect x="440" y="460" width="16" height="16" rx="3" ry="3" fill="#2a2a2a"></rect><rect x="460" y="460" width="16" height="16" rx="3" ry="3" fill="#2a2a2a"></rect><rect x="480" y="460" width="16" height="16" rx="3" ry="3" fill="#2a2a2a"></rect><rect x="500" y="460" width="16" height="16" rx="3" ry="3" fill="#2a2a2a"></rect><rect x="380" y="480" width="16" height="16" rx="3" ry="3" fill="#2a2a2a"></rect><text x="552" y="373" fill="#4169E1" font-size="22px" font-family="Segoe UI, Roboto, sans-serif" font-weight="bold">DEC</text><rect x="570" y="380" width="16" height="16" rx="3" ry="3" fill="#2a2a2a"></rect><rect x="590" y="380" width="16" height="16" rx="3" ry="3" fill="#2a2a2a"></rect><rect x="610" y="380" width="16" height="16" rx="3" ry="3" fill="#2a2a2a"></rect><rect x="630" y="380" width="16" height="16" rx="3" ry="3" fill="#2a2a2a"></rect><rect x="650" y="380" width="16" height="16" rx="3" ry="3" fill="#2a2a2a"></rect><rect x="670" y="380" width="16" height="16" rx="3" ry="3" fill="#2a2a2a"></rect><rect x="550" y="400" width="16" height="16" rx="3" ry="3" fill="#2a2a2a"></rect><rect x="570" y="400" width="16" height="16" rx="3" ry="3" fill="#2a2a2a"></rect><rect x="590" y="400" width="16" height="16" rx="3" ry="3" fill="#2a2a2a"></rect><rect x="610" y="400" width="16" height="16" rx="3" ry="3" fill="#2a2a2a"></rect><rect x="630" y="400" width="16" height="16" rx="3" ry="3" fill="#2a2a2a"></rect><rect x="650" y="400" width="16" height="16" rx="3" ry="3" fill="#2a2a2a"></rect><rect x="670" y="400" width="16" height="16" rx="3" ry="3" fill="#2a2a2a"></rect><rect x="550" y="420" width="16" height="16" rx="3" ry="3" fill="#2a2a2a"></rect><rect x="570" y="420" width="16" height="16" rx="3" ry="3" fill="#2a2a2a"></rect><rect x="590" y="420" width="16" height="16" rx="3" ry="3" fill="#2a2a2a"></rect><rect x="610" y="420" width="16" height="16" rx="3" ry="3" fill="#2a2a2a"></rect><rect x="630" y="420" width="16" height="16" rx="3" ry="3" fill="#2a2a2a"></rect><rect x="650" y="420" width="16" height="16" rx="3" ry="3" fill="#2a2a2a"></rect><rect x="670" y="420" width="16" height="16" rx="3" ry="3" fill="#2a2a2a"></rect><rect x="550" y="440" width="16" height="16" rx="3" ry="3" fill="#2a2a2a"></rect><rect x="570" y="440" width="16" height="16" rx="3" ry="3" fill="#2a2a2a"></rect><rect x="590" y="440" width="16" height="16" rx="3" ry="3" fill="#2a2a2a"></rect><rect x="610" y="440" width="16" height="16" rx="3" ry="3" fill="#2a2a2a"></rect><rect x="630" y="440" width="16" height="16" rx="3" ry="3" fill="#2a2a2a"></rect><rect x="650" y="440" width="16" height="16" rx="3" ry="3" fill="#2a2a2a"></rect><rect x="670" y="440" width="16" height="16" rx="3" ry="3" fill="#2a2a2a"></rect><rect x="550" y="460" width="16" height="16" rx="3" ry="3" fill="#2a2a2a"></rect><rect x="570" y="460" width="16" height="16" rx="3" ry="3" fill="#2a2a2a"></rect><rect x="590" y="460" width="16" height="16" rx="3" ry="3" fill="#2a2a2a"></rect><rect x="610" y="460" width="16" height="16" rx="3" ry="3" fill="#2a2a2a"></rect></svg>